<?xml version="1.0" encoding="utf-8"?>
<!-- Generator: Adobe Illustrator 24.2.1, SVG Export Plug-In . SVG Version: 6.00 Build 0)  -->
<svg version="1.1" id="Layer_1" xmlns="http://www.w3.org/2000/svg" xmlns:xlink="http://www.w3.org/1999/xlink" x="0px" y="0px"
	 viewBox="0 0 260 260" style="enable-background:new 0 0 260 260;" xml:space="preserve">
<style type="text/css">
	.st0{fill:#327D6C;}
	.st1{fill-rule:evenodd;clip-rule:evenodd;fill:#FFFFFF;}
</style>
<g>
	<path class="st0" d="M223.7,232.1h-29h-29v-5l18.2-1.9V163h-74.4v62.2l18.2,1.9v5h-58v-5l18.2-1.9V99.1l5-3.8L90.2,89h19.3v8.2v1.9
		v56.4h74.4V99.1l-18.2-1.9v-5h29h14.5h14.5v5l-18.2,1.9v126.1l18.2,1.9V232.1z"/>
	<path class="st0" d="M94.9,149V40.8l-18.2-1.9v-5h58v5l-18.2,1.9v96.4c0,30.6-8.4,49.9-25.3,58c-6.6,3.1-14.1,4.6-22.6,4.6
		c-8.5,0-15.6-1.5-21.2-4.4c-5.6-2.9-8.4-7.9-8.4-14.9c0-2.9,1.3-5.5,4-7.8c2.5-2.1,5.2-3.1,8.2-3.1c2.9,0,5.3,0.3,7.1,0.8
		c-0.8,2.9-1.3,5.7-1.3,8.2c0,9.4,4.5,14,13.4,14C86.7,192.7,94.9,178.1,94.9,149z"/>
	<path class="st1" d="M134.3,33.8v5l-18.2,1.9l0.4,96.5c0,23.7-5.1,40.7-15.2,50.9c-2.9,3-6.3,5.4-10.1,7.2
		c-6.1,2.8-13,4.4-20.7,4.6c-0.6,0-1.3,0-1.9,0c-8.4,0-15.4-1.4-20.9-4.3c-0.1,0-0.2-0.1-0.3-0.1c-5.6-2.9-8.4-7.9-8.4-14.9
		c0-2.9,1.3-5.5,4-7.8c0.2-0.2,0.4-0.3,0.6-0.5c2.3-1.8,4.9-2.7,7.6-2.7c2.7,0,4.9,0.2,6.6,0.7c0.2,0,0.3,0.1,0.5,0.1
		c-0.8,2.9-1.3,5.7-1.3,8.2c0,2.2,0.3,4.2,0.8,5.9c1.5,4.9,5.1,7.6,10.8,8c0.6,0.1,1.2,0.1,1.9,0.1c6.7,0,12-2.5,16-7.4
		c0,0,0-0.1,0.1-0.1c1.3-1.7,2.5-3.6,3.5-5.8c3.3-7.2,5-17.4,5-30.5L94.5,40.8l-18.2-1.9v-5H134.3z M80.6,53.4l-18.2-1.9V19.9h86
		v31.6l-18.2,1.9l0.4,83.9c0,32.3-8.9,59-33.3,70.6l-0.1,0l-0.1,0c-8.7,4.1-18.3,5.9-28.5,5.9c-10,0-19.5-1.7-27.7-6
		c-4.9-2.6-9.1-6.4-12-11.4c-2.8-5-3.9-10.5-3.9-15.8c0-7.8,3.8-14.1,9-18.4l0,0l0,0c4.7-3.9,10.5-6.4,17.1-6.4
		c3.7,0,7.6,0.3,11.2,1.5l13.1,4l-3.8,13.2c-0.6,1.9-0.7,3.4-0.7,4.3c0,0,0,0,0,0.1c1.6-0.1,2.5-0.4,3-0.8c0.6-0.4,1.6-1.1,2.6-3
		c2.3-4.2,4.3-12.3,4.3-26L80.6,53.4z"/>
</g>
</svg>
